<?xml version="1.0" encoding="UTF-8"?>
<svg xmlns="http://www.w3.org/2000/svg" version="1.1" width="600" height="600" viewBox="0 0 600 600"><rect x="0" y="0" width="600" height="600" fill="#ffffff"/><g transform="scale(20.69)"><g transform="translate(2,2)"><path fill-rule="evenodd" d="M8 0L8 4L9 4L9 5L8 5L8 7L9 7L9 6L10 6L10 9L11 9L11 10L9 10L9 9L8 9L8 10L4 10L4 9L7 9L7 8L4 8L4 9L3 9L3 10L1 10L1 11L2 11L2 13L0 13L0 14L2 14L2 15L3 15L3 16L0 16L0 17L3 17L3 16L4 16L4 17L5 17L5 16L6 16L6 17L7 17L7 16L8 16L8 15L9 15L9 14L11 14L11 16L10 16L10 17L11 17L11 19L8 19L8 21L9 21L9 23L8 23L8 25L9 25L9 23L10 23L10 20L11 20L11 23L12 23L12 24L11 24L11 25L12 25L12 24L13 24L13 22L14 22L14 23L15 23L15 24L14 24L14 25L16 25L16 22L14 22L14 21L13 21L13 20L12 20L12 19L13 19L13 18L14 18L14 20L15 20L15 17L13 17L13 15L15 15L15 16L16 16L16 21L17 21L17 22L18 22L18 23L19 23L19 24L18 24L18 25L19 25L19 24L22 24L22 25L25 25L25 24L24 24L24 22L25 22L25 21L24 21L24 20L25 20L25 19L21 19L21 17L23 17L23 16L24 16L24 15L23 15L23 14L24 14L24 13L25 13L25 12L24 12L24 11L23 11L23 10L24 10L24 9L25 9L25 8L21 8L21 9L20 9L20 8L19 8L19 9L20 9L20 11L19 11L19 12L17 12L17 9L16 9L16 7L17 7L17 3L16 3L16 2L17 2L17 0L14 0L14 1L16 1L16 2L15 2L15 3L12 3L12 2L11 2L11 3L10 3L10 2L9 2L9 0ZM10 0L10 1L13 1L13 0ZM11 3L11 4L10 4L10 5L11 5L11 9L13 9L13 10L14 10L14 6L15 6L15 7L16 7L16 5L15 5L15 4L14 4L14 6L13 6L13 7L12 7L12 5L11 5L11 4L12 4L12 3ZM0 8L0 9L2 9L2 8ZM22 9L22 10L23 10L23 9ZM8 10L8 11L9 11L9 10ZM3 11L3 12L4 12L4 11ZM5 11L5 13L3 13L3 14L5 14L5 13L6 13L6 14L7 14L7 15L6 15L6 16L7 16L7 15L8 15L8 14L9 14L9 13L11 13L11 11L10 11L10 12L9 12L9 13L8 13L8 12L7 12L7 11ZM13 11L13 12L12 12L12 13L13 13L13 14L12 14L12 15L13 15L13 14L14 14L14 13L16 13L16 11ZM20 11L20 13L17 13L17 14L16 14L16 16L19 16L19 14L20 14L20 13L21 13L21 14L23 14L23 13L21 13L21 12L22 12L22 11ZM6 12L6 13L7 13L7 14L8 14L8 13L7 13L7 12ZM17 14L17 15L18 15L18 14ZM21 15L21 16L22 16L22 15ZM11 16L11 17L12 17L12 18L13 18L13 17L12 17L12 16ZM8 17L8 18L9 18L9 17ZM17 17L17 20L20 20L20 17ZM18 18L18 19L19 19L19 18ZM12 21L12 22L13 22L13 21ZM20 21L20 22L19 22L19 23L21 23L21 22L22 22L22 23L23 23L23 22L22 22L22 21ZM0 0L0 7L7 7L7 0ZM1 1L1 6L6 6L6 1ZM2 2L2 5L5 5L5 2ZM18 0L18 7L25 7L25 0ZM19 1L19 6L24 6L24 1ZM20 2L20 5L23 5L23 2ZM0 18L0 25L7 25L7 18ZM1 19L1 24L6 24L6 19ZM2 20L2 23L5 23L5 20Z" fill="#000000"/></g></g></svg>
